<svg width="117" height="39" viewBox="0 0 117 39" fill="none" xmlns="http://www.w3.org/2000/svg">
<path d="M7.27637 12.5107C9.11806 12.4864 10.9769 12.4985 12.4258 12.5889C13.1519 12.6342 13.7605 12.6982 14.207 12.7832C14.4307 12.8258 14.5983 12.8711 14.7139 12.915C14.7749 12.9383 14.808 12.9564 14.8223 12.9648C14.8454 13.0052 14.8809 13.0984 14.8857 13.2803C14.8912 13.4827 14.8583 13.7455 14.7812 14.0566C14.6274 14.6778 14.3133 15.4261 13.8857 16.1494C13.458 16.8729 12.9308 17.5468 12.3672 18.0332C11.7975 18.5248 11.2394 18.784 10.7373 18.7842C10.4794 18.7842 10.207 18.8566 10.0029 19.0703C9.80591 19.2767 9.7441 19.5402 9.73535 19.7686C9.71861 20.2071 9.88863 20.7528 10.1221 21.3086C10.6019 22.451 11.4901 23.9471 12.4424 25.4141C13.3995 26.8885 14.4398 28.3609 15.2393 29.4629C15.5298 29.8633 15.7907 30.214 16.0029 30.5H6.85645L0.69043 12.7207C1.07963 12.7019 1.62284 12.6776 2.27148 12.6514C3.62488 12.5966 5.43727 12.5351 7.27637 12.5107Z" fill="black" stroke="black"/>
<path d="M21.2841 31V13.5455H24.5682V16.3182H24.75C25.0682 15.3788 25.6288 14.6402 26.4318 14.1023C27.2424 13.5568 28.1591 13.2841 29.1818 13.2841C29.3939 13.2841 29.6439 13.2917 29.9318 13.3068C30.2273 13.322 30.4583 13.3409 30.625 13.3636V16.6136C30.4886 16.5758 30.2462 16.5341 29.8977 16.4886C29.5492 16.4356 29.2008 16.4091 28.8523 16.4091C28.0492 16.4091 27.3333 16.5795 26.7045 16.9205C26.0833 17.2538 25.5909 17.7197 25.2273 18.3182C24.8636 18.9091 24.6818 19.5833 24.6818 20.3409V31H21.2841ZM39.1831 31.3523C37.4634 31.3523 35.9823 30.9848 34.7399 30.25C33.505 29.5076 32.5505 28.4659 31.8763 27.125C31.2096 25.7765 30.8763 24.197 30.8763 22.3864C30.8763 20.5985 31.2096 19.0227 31.8763 17.6591C32.5505 16.2955 33.4899 15.2311 34.6944 14.4659C35.9066 13.7008 37.3232 13.3182 38.9444 13.3182C39.9293 13.3182 40.8838 13.4811 41.8081 13.8068C42.7323 14.1326 43.5619 14.6439 44.2967 15.3409C45.0316 16.0379 45.6111 16.9432 46.0353 18.0568C46.4596 19.1629 46.6717 20.5076 46.6717 22.0909V23.2955H32.7967V20.75H43.3422C43.3422 19.8561 43.1603 19.0644 42.7967 18.375C42.4331 17.678 41.9217 17.1288 41.2626 16.7273C40.6111 16.3258 39.8459 16.125 38.9672 16.125C38.0126 16.125 37.1793 16.3598 36.4672 16.8295C35.7626 17.2917 35.2172 17.8977 34.8308 18.6477C34.452 19.3902 34.2626 20.197 34.2626 21.0682V23.0568C34.2626 24.2235 34.4672 25.2159 34.8763 26.0341C35.2929 26.8523 35.8725 27.4773 36.6149 27.9091C37.3573 28.3333 38.2247 28.5455 39.2172 28.5455C39.8611 28.5455 40.4482 28.4545 40.9785 28.2727C41.5088 28.0833 41.9672 27.803 42.3535 27.4318C42.7399 27.0606 43.0353 26.6023 43.2399 26.0568L46.4558 26.6364C46.1982 27.5833 45.7361 28.4129 45.0694 29.125C44.4103 29.8295 43.5808 30.3788 42.5808 30.7727C41.5884 31.1591 40.4558 31.3523 39.1831 31.3523ZM63.5934 13.5455L57.2639 31H53.6275L47.2866 13.5455H50.9343L55.3548 26.9773H55.5366L59.9457 13.5455H63.5934ZM72.4356 31.3523C70.7159 31.3523 69.2348 30.9848 67.9924 30.25C66.7575 29.5076 65.803 28.4659 65.1287 27.125C64.4621 25.7765 64.1287 24.197 64.1287 22.3864C64.1287 20.5985 64.4621 19.0227 65.1287 17.6591C65.803 16.2955 66.7424 15.2311 67.9469 14.4659C69.1591 13.7008 70.5757 13.3182 72.1969 13.3182C73.1818 13.3182 74.1363 13.4811 75.0606 13.8068C75.9848 14.1326 76.8144 14.6439 77.5492 15.3409C78.2841 16.0379 78.8636 16.9432 79.2878 18.0568C79.7121 19.1629 79.9242 20.5076 79.9242 22.0909V23.2955H66.0492V20.75H76.5947C76.5947 19.8561 76.4128 19.0644 76.0492 18.375C75.6856 17.678 75.1742 17.1288 74.5151 16.7273C73.8636 16.3258 73.0984 16.125 72.2197 16.125C71.2651 16.125 70.4318 16.3598 69.7197 16.8295C69.0151 17.2917 68.4697 17.8977 68.0833 18.6477C67.7045 19.3902 67.5151 20.197 67.5151 21.0682V23.0568C67.5151 24.2235 67.7197 25.2159 68.1287 26.0341C68.5454 26.8523 69.125 27.4773 69.8674 27.9091C70.6098 28.3333 71.4772 28.5455 72.4697 28.5455C73.1136 28.5455 73.7007 28.4545 74.231 28.2727C74.7613 28.0833 75.2197 27.803 75.606 27.4318C75.9924 27.0606 76.2878 26.6023 76.4924 26.0568L79.7083 26.6364C79.4507 27.5833 78.9886 28.4129 78.3219 29.125C77.6628 29.8295 76.8333 30.3788 75.8333 30.7727C74.8409 31.1591 73.7083 31.3523 72.4356 31.3523ZM90.5618 13.5455V16.2727H81.0277V13.5455H90.5618ZM83.5845 9.36364H86.9823V25.875C86.9823 26.5341 87.0808 27.0303 87.2777 27.3636C87.4747 27.6894 87.7285 27.9129 88.0391 28.0341C88.3573 28.1477 88.702 28.2045 89.0732 28.2045C89.3459 28.2045 89.5845 28.1856 89.7891 28.1477C89.9936 28.1098 90.1527 28.0795 90.2664 28.0568L90.88 30.8636C90.683 30.9394 90.4027 31.0152 90.0391 31.0909C89.6755 31.1742 89.2209 31.2197 88.6755 31.2273C87.7815 31.2424 86.9482 31.0833 86.1755 30.75C85.4027 30.4167 84.7777 29.9015 84.3005 29.2045C83.8232 28.5076 83.5845 27.6326 83.5845 26.5795V9.36364ZM93.0403 31V13.5455H96.4381V31H93.0403ZM94.7562 10.8523C94.1653 10.8523 93.6578 10.6553 93.2335 10.2614C92.8169 9.85985 92.6085 9.38257 92.6085 8.82954C92.6085 8.26894 92.8169 7.79167 93.2335 7.39773C93.6578 6.99621 94.1653 6.79545 94.7562 6.79545C95.3472 6.79545 95.8509 6.99621 96.2676 7.39773C96.6919 7.79167 96.904 8.26894 96.904 8.82954C96.904 9.38257 96.6919 9.85985 96.2676 10.2614C95.8509 10.6553 95.3472 10.8523 94.7562 10.8523ZM107.081 31.3523C105.445 31.3523 104.017 30.9773 102.797 30.2273C101.578 29.4773 100.631 28.428 99.9564 27.0795C99.2821 25.7311 98.945 24.1553 98.945 22.3523C98.945 20.5417 99.2821 18.9583 99.9564 17.6023C100.631 16.2462 101.578 15.1932 102.797 14.4432C104.017 13.6932 105.445 13.3182 107.081 13.3182C108.718 13.3182 110.146 13.6932 111.365 14.4432C112.585 15.1932 113.532 16.2462 114.206 17.6023C114.881 18.9583 115.218 20.5417 115.218 22.3523C115.218 24.1553 114.881 25.7311 114.206 27.0795C113.532 28.428 112.585 29.4773 111.365 30.2273C110.146 30.9773 108.718 31.3523 107.081 31.3523ZM107.093 28.5C108.153 28.5 109.032 28.2197 109.729 27.6591C110.426 27.0985 110.941 26.3523 111.275 25.4205C111.615 24.4886 111.786 23.4621 111.786 22.3409C111.786 21.2273 111.615 20.2045 111.275 19.2727C110.941 18.3333 110.426 17.5795 109.729 17.0114C109.032 16.4432 108.153 16.1591 107.093 16.1591C106.025 16.1591 105.138 16.4432 104.434 17.0114C103.737 17.5795 103.218 18.3333 102.877 19.2727C102.543 20.2045 102.377 21.2273 102.377 22.3409C102.377 23.4621 102.543 24.4886 102.877 25.4205C103.218 26.3523 103.737 27.0985 104.434 27.6591C105.138 28.2197 106.025 28.5 107.093 28.5Z" fill="black"/>
</svg>
