<svg width="107" height="41" viewBox="0 0 107 41" fill="none" xmlns="http://www.w3.org/2000/svg">
<path d="M1.71307 35V21.9091H4.15909V24.0398H4.32102C4.59375 23.3182 5.03977 22.7557 5.65909 22.3523C6.27841 21.9432 7.01989 21.7386 7.88352 21.7386C8.75852 21.7386 9.49148 21.9432 10.0824 22.3523C10.679 22.7614 11.1193 23.3239 11.4034 24.0398H11.5398C11.8523 23.3409 12.3494 22.7841 13.0312 22.3693C13.7131 21.9489 14.5256 21.7386 15.4688 21.7386C16.6562 21.7386 17.625 22.1108 18.375 22.8551C19.1307 23.5994 19.5085 24.7216 19.5085 26.2216V35H16.9602V26.4602C16.9602 25.5739 16.7188 24.9318 16.2358 24.5341C15.7528 24.1364 15.1761 23.9375 14.5057 23.9375C13.6761 23.9375 13.0312 24.1932 12.571 24.7045C12.1108 25.2102 11.8807 25.8608 11.8807 26.6562V35H9.34091V26.2983C9.34091 25.5881 9.11932 25.017 8.67614 24.5852C8.23295 24.1534 7.65625 23.9375 6.94602 23.9375C6.46307 23.9375 6.01705 24.0653 5.60795 24.321C5.20455 24.571 4.87784 24.9205 4.62784 25.3693C4.38352 25.8182 4.26136 26.3381 4.26136 26.929V35H1.71307ZM28.5661 35.2642C27.2763 35.2642 26.1655 34.9886 25.2337 34.4375C24.3075 33.8807 23.5916 33.0994 23.0859 32.0938C22.5859 31.0824 22.3359 29.8977 22.3359 28.5398C22.3359 27.1989 22.5859 26.017 23.0859 24.9943C23.5916 23.9716 24.2962 23.1733 25.1996 22.5994C26.1087 22.0256 27.1712 21.7386 28.3871 21.7386C29.1257 21.7386 29.8416 21.8608 30.5348 22.1051C31.228 22.3494 31.8501 22.733 32.4013 23.2557C32.9524 23.7784 33.3871 24.4574 33.7053 25.2926C34.0234 26.1222 34.1825 27.1307 34.1825 28.3182V29.2216H23.7763V27.3125H31.6854C31.6854 26.642 31.549 26.0483 31.2763 25.5312C31.0036 25.0085 30.62 24.5966 30.1257 24.2955C29.6371 23.9943 29.0632 23.8438 28.4041 23.8438C27.6882 23.8438 27.0632 24.0199 26.5291 24.3722C26.0007 24.7187 25.5916 25.1733 25.3018 25.7358C25.0178 26.2926 24.8757 26.8977 24.8757 27.5511V29.0426C24.8757 29.9176 25.0291 30.6619 25.3359 31.2756C25.6484 31.8892 26.0831 32.358 26.6399 32.6818C27.1967 33 27.8473 33.1591 28.5916 33.1591C29.0746 33.1591 29.5149 33.0909 29.9126 32.9545C30.3104 32.8125 30.6541 32.6023 30.9439 32.3239C31.2337 32.0455 31.4553 31.7017 31.6087 31.2926L34.0206 31.7273C33.8274 32.4375 33.4808 33.0597 32.9808 33.5938C32.4865 34.1222 31.8643 34.5341 31.1143 34.8295C30.37 35.1193 29.5206 35.2642 28.5661 35.2642ZM42.5241 35.2642C41.2571 35.2642 40.1662 34.9773 39.2514 34.4034C38.3423 33.8239 37.6435 33.0256 37.1548 32.0085C36.6662 30.9915 36.4219 29.8267 36.4219 28.5142C36.4219 27.1847 36.6719 26.0114 37.1719 24.9943C37.6719 23.9716 38.3764 23.1733 39.2855 22.5994C40.1946 22.0256 41.2656 21.7386 42.4986 21.7386C43.4929 21.7386 44.3793 21.9233 45.1577 22.2926C45.9361 22.6562 46.5639 23.1676 47.0412 23.8267C47.5241 24.4858 47.8111 25.2557 47.902 26.1364H45.4219C45.2855 25.5227 44.973 24.9943 44.4844 24.5511C44.0014 24.108 43.3537 23.8864 42.5412 23.8864C41.831 23.8864 41.2088 24.0739 40.6747 24.4489C40.1463 24.8182 39.7344 25.3466 39.4389 26.0341C39.1435 26.7159 38.9957 27.5227 38.9957 28.4545C38.9957 29.4091 39.1406 30.233 39.4304 30.9261C39.7202 31.6193 40.1293 32.1562 40.6577 32.5369C41.1918 32.9176 41.8196 33.108 42.5412 33.108C43.0241 33.108 43.4616 33.0199 43.8537 32.8438C44.2514 32.6619 44.5838 32.4034 44.8509 32.0682C45.1236 31.733 45.3139 31.3295 45.4219 30.858H47.902C47.8111 31.7045 47.5355 32.4602 47.0753 33.125C46.6151 33.7898 45.9986 34.3125 45.2259 34.6932C44.4588 35.0739 43.5582 35.2642 42.5241 35.2642ZM53.1754 27.2273V35H50.6271V17.5455H53.1413V24.0398H53.3033C53.6101 23.3352 54.0788 22.7756 54.7095 22.3608C55.3402 21.946 56.1641 21.7386 57.1811 21.7386C58.0788 21.7386 58.8629 21.9233 59.5334 22.2926C60.2095 22.6619 60.7322 23.2131 61.1016 23.946C61.4766 24.6733 61.6641 25.5824 61.6641 26.6733V35H59.1158V26.9801C59.1158 26.0199 58.8686 25.2756 58.3743 24.7472C57.88 24.2131 57.1925 23.946 56.3118 23.946C55.7095 23.946 55.1697 24.0739 54.6925 24.3295C54.2209 24.5852 53.8487 24.9602 53.576 25.4545C53.3089 25.9432 53.1754 26.5341 53.1754 27.2273ZM65.0646 35V21.9091H67.6129V35H65.0646ZM66.3516 19.8892C65.9084 19.8892 65.5277 19.7415 65.2095 19.446C64.897 19.1449 64.7408 18.7869 64.7408 18.3722C64.7408 17.9517 64.897 17.5937 65.2095 17.2983C65.5277 16.9972 65.9084 16.8466 66.3516 16.8466C66.7947 16.8466 67.1726 16.9972 67.4851 17.2983C67.8033 17.5937 67.9624 17.9517 67.9624 18.3722C67.9624 18.7869 67.8033 19.1449 67.4851 19.446C67.1726 19.7415 66.7947 19.8892 66.3516 19.8892ZM76.6832 35.2642C75.3935 35.2642 74.2827 34.9886 73.3509 34.4375C72.4247 33.8807 71.7088 33.0994 71.2031 32.0938C70.7031 31.0824 70.4531 29.8977 70.4531 28.5398C70.4531 27.1989 70.7031 26.017 71.2031 24.9943C71.7088 23.9716 72.4134 23.1733 73.3168 22.5994C74.2259 22.0256 75.2884 21.7386 76.5043 21.7386C77.2429 21.7386 77.9588 21.8608 78.652 22.1051C79.3452 22.3494 79.9673 22.733 80.5185 23.2557C81.0696 23.7784 81.5043 24.4574 81.8224 25.2926C82.1406 26.1222 82.2997 27.1307 82.2997 28.3182V29.2216H71.8935V27.3125H79.8026C79.8026 26.642 79.6662 26.0483 79.3935 25.5312C79.1207 25.0085 78.7372 24.5966 78.2429 24.2955C77.7543 23.9943 77.1804 23.8438 76.5213 23.8438C75.8054 23.8438 75.1804 24.0199 74.6463 24.3722C74.1179 24.7187 73.7088 25.1733 73.419 25.7358C73.1349 26.2926 72.9929 26.8977 72.9929 27.5511V29.0426C72.9929 29.9176 73.1463 30.6619 73.4531 31.2756C73.7656 31.8892 74.2003 32.358 74.7571 32.6818C75.3139 33 75.9645 33.1591 76.7088 33.1591C77.1918 33.1591 77.6321 33.0909 78.0298 32.9545C78.4276 32.8125 78.7713 32.6023 79.0611 32.3239C79.3509 32.0455 79.5724 31.7017 79.7259 31.2926L82.1378 31.7273C81.9446 32.4375 81.598 33.0597 81.098 33.5938C80.6037 34.1222 79.9815 34.5341 79.2315 34.8295C78.4872 35.1193 77.6378 35.2642 76.6832 35.2642ZM85.1271 35V21.9091H87.5902V23.9886H87.7266C87.9652 23.2841 88.3857 22.7301 88.9879 22.3267C89.5959 21.9176 90.2834 21.7131 91.0504 21.7131C91.2095 21.7131 91.397 21.7187 91.6129 21.7301C91.8345 21.7415 92.0078 21.7557 92.1328 21.7727V24.2102C92.0305 24.1818 91.8487 24.1506 91.5874 24.1165C91.326 24.0767 91.0646 24.0568 90.8033 24.0568C90.201 24.0568 89.6641 24.1847 89.1925 24.4403C88.7266 24.6903 88.3572 25.0398 88.0845 25.4886C87.8118 25.9318 87.6754 26.4375 87.6754 27.0057V35H85.1271ZM99.5114 35.2642C98.2216 35.2642 97.1108 34.9886 96.179 34.4375C95.2528 33.8807 94.5369 33.0994 94.0312 32.0938C93.5312 31.0824 93.2812 29.8977 93.2812 28.5398C93.2812 27.1989 93.5312 26.017 94.0312 24.9943C94.5369 23.9716 95.2415 23.1733 96.1449 22.5994C97.054 22.0256 98.1165 21.7386 99.3324 21.7386C100.071 21.7386 100.787 21.8608 101.48 22.1051C102.173 22.3494 102.795 22.733 103.347 23.2557C103.898 23.7784 104.332 24.4574 104.651 25.2926C104.969 26.1222 105.128 27.1307 105.128 28.3182V29.2216H94.7216V27.3125H102.631C102.631 26.642 102.494 26.0483 102.222 25.5312C101.949 25.0085 101.565 24.5966 101.071 24.2955C100.582 23.9943 100.009 23.8438 99.3494 23.8438C98.6335 23.8438 98.0085 24.0199 97.4744 24.3722C96.946 24.7187 96.5369 25.1733 96.2472 25.7358C95.9631 26.2926 95.821 26.8977 95.821 27.5511V29.0426C95.821 29.9176 95.9744 30.6619 96.2812 31.2756C96.5938 31.8892 97.0284 32.358 97.5852 32.6818C98.142 33 98.7926 33.1591 99.5369 33.1591C100.02 33.1591 100.46 33.0909 100.858 32.9545C101.256 32.8125 101.599 32.6023 101.889 32.3239C102.179 32.0455 102.401 31.7017 102.554 31.2926L104.966 31.7273C104.773 32.4375 104.426 33.0597 103.926 33.5938C103.432 34.1222 102.81 34.5341 102.06 34.8295C101.315 35.1193 100.466 35.2642 99.5114 35.2642Z" fill="black"/>
<path d="M1.71307 23V9.90909H4.15909V12.0398H4.32102C4.59375 11.3182 5.03977 10.7557 5.65909 10.3523C6.27841 9.94318 7.01989 9.73864 7.88352 9.73864C8.75852 9.73864 9.49148 9.94318 10.0824 10.3523C10.679 10.7614 11.1193 11.3239 11.4034 12.0398H11.5398C11.8523 11.3409 12.3494 10.7841 13.0312 10.3693C13.7131 9.94886 14.5256 9.73864 15.4688 9.73864C16.6562 9.73864 17.625 10.1108 18.375 10.8551C19.1307 11.5994 19.5085 12.7216 19.5085 14.2216V23H16.9602V14.4602C16.9602 13.5739 16.7188 12.9318 16.2358 12.5341C15.7528 12.1364 15.1761 11.9375 14.5057 11.9375C13.6761 11.9375 13.0312 12.1932 12.571 12.7045C12.1108 13.2102 11.8807 13.8608 11.8807 14.6562V23H9.34091V14.2983C9.34091 13.5881 9.11932 13.017 8.67614 12.5852C8.23295 12.1534 7.65625 11.9375 6.94602 11.9375C6.46307 11.9375 6.01705 12.0653 5.60795 12.321C5.20455 12.571 4.87784 12.9205 4.62784 13.3693C4.38352 13.8182 4.26136 14.3381 4.26136 14.929V23H1.71307Z" fill="black"/>
<path d="M1.71307 35V21.9091H4.15909V24.0398H4.32102C4.59375 23.3182 5.03977 22.7557 5.65909 22.3523C6.27841 21.9432 7.01989 21.7386 7.88352 21.7386C8.75852 21.7386 9.49148 21.9432 10.0824 22.3523C10.679 22.7614 11.1193 23.3239 11.4034 24.0398H11.5398C11.8523 23.3409 12.3494 22.7841 13.0312 22.3693C13.7131 21.9489 14.5256 21.7386 15.4688 21.7386C16.6562 21.7386 17.625 22.1108 18.375 22.8551C19.1307 23.5994 19.5085 24.7216 19.5085 26.2216V35H16.9602V26.4602C16.9602 25.5739 16.7188 24.9318 16.2358 24.5341C15.7528 24.1364 15.1761 23.9375 14.5057 23.9375C13.6761 23.9375 13.0312 24.1932 12.571 24.7045C12.1108 25.2102 11.8807 25.8608 11.8807 26.6562V35H9.34091V26.2983C9.34091 25.5881 9.11932 25.017 8.67614 24.5852C8.23295 24.1534 7.65625 23.9375 6.94602 23.9375C6.46307 23.9375 6.01705 24.0653 5.60795 24.321C5.20455 24.571 4.87784 24.9205 4.62784 25.3693C4.38352 25.8182 4.26136 26.3381 4.26136 26.929V35H1.71307Z" fill="black"/>
<path d="M1.71307 29L1.71307 15.9091H4.15909V18.0398H4.32102C4.59375 17.3182 5.03977 16.7557 5.65909 16.3523C6.27841 15.9432 7.01989 15.7386 7.88352 15.7386C8.75852 15.7386 9.49148 15.9432 10.0824 16.3523C10.679 16.7614 11.1193 17.3239 11.4034 18.0398H11.5398C11.8523 17.3409 12.3494 16.7841 13.0312 16.3693C13.7131 15.9489 14.5256 15.7386 15.4688 15.7386C16.6562 15.7386 17.625 16.1108 18.375 16.8551C19.1307 17.5994 19.5085 18.7216 19.5085 20.2216V29H16.9602V20.4602C16.9602 19.5739 16.7188 18.9318 16.2358 18.5341C15.7528 18.1364 15.1761 17.9375 14.5057 17.9375C13.6761 17.9375 13.0312 18.1932 12.571 18.7045C12.1108 19.2102 11.8807 19.8608 11.8807 20.6562V29H9.34091V20.2983C9.34091 19.5881 9.11932 19.017 8.67614 18.5852C8.23295 18.1534 7.65625 17.9375 6.94602 17.9375C6.46307 17.9375 6.01705 18.0653 5.60795 18.321C5.20455 18.571 4.87784 18.9205 4.62784 19.3693C4.38352 19.8182 4.26136 20.3381 4.26136 20.929V29H1.71307Z" fill="black"/>
</svg>

