<svg width="119" height="39" viewBox="0 0 119 39" fill="none" xmlns="http://www.w3.org/2000/svg">
<path d="M7.27637 12.5107C9.11806 12.4864 10.9769 12.4985 12.4258 12.5889C13.1519 12.6342 13.7605 12.6982 14.207 12.7832C14.4307 12.8258 14.5983 12.8711 14.7139 12.915C14.7749 12.9383 14.808 12.9564 14.8223 12.9648C14.8454 13.0052 14.8809 13.0984 14.8857 13.2803C14.8912 13.4827 14.8583 13.7455 14.7812 14.0566C14.6274 14.6778 14.3133 15.4261 13.8857 16.1494C13.458 16.8729 12.9308 17.5468 12.3672 18.0332C11.7975 18.5248 11.2394 18.784 10.7373 18.7842C10.4794 18.7842 10.207 18.8566 10.0029 19.0703C9.80591 19.2767 9.7441 19.5402 9.73535 19.7686C9.71861 20.2071 9.88863 20.7528 10.1221 21.3086C10.6019 22.451 11.4901 23.9471 12.4424 25.4141C13.3995 26.8885 14.4398 28.3609 15.2393 29.4629C15.5298 29.8633 15.7907 30.214 16.0029 30.5H6.85645L0.69043 12.7207C1.07963 12.7019 1.62284 12.6776 2.27148 12.6514C3.62488 12.5966 5.43727 12.5351 7.27637 12.5107Z" fill="black" stroke="black"/>
<path d="M21.1136 31V13.5455H25.1023V16.4545H25.2841C25.6023 15.447 26.1477 14.6705 26.9205 14.125C27.7008 13.572 28.5909 13.2955 29.5909 13.2955C29.8182 13.2955 30.072 13.3068 30.3523 13.3295C30.6402 13.3447 30.8788 13.3712 31.0682 13.4091V17.1932C30.8939 17.1326 30.6174 17.0795 30.2386 17.0341C29.8674 16.9811 29.5076 16.9545 29.1591 16.9545C28.4091 16.9545 27.7348 17.1174 27.1364 17.4432C26.5455 17.7614 26.0795 18.2045 25.7386 18.7727C25.3977 19.3409 25.2273 19.9962 25.2273 20.7386V31H21.1136ZM39.5297 31.3409C37.7797 31.3409 36.2683 30.9773 34.9956 30.25C33.7304 29.5152 32.7569 28.4773 32.0751 27.1364C31.3933 25.7879 31.0524 24.2008 31.0524 22.375C31.0524 20.5795 31.3933 19.0038 32.0751 17.6477C32.7645 16.2841 33.7266 15.2235 34.9615 14.4659C36.1963 13.7008 37.6471 13.3182 39.3138 13.3182C40.3895 13.3182 41.4047 13.4924 42.3592 13.8409C43.3213 14.1818 44.1698 14.7121 44.9047 15.4318C45.6471 16.1515 46.2304 17.0682 46.6547 18.1818C47.0789 19.2879 47.291 20.6061 47.291 22.1364V23.3977H32.9842V20.625H43.3478C43.3403 19.8371 43.1698 19.1364 42.8365 18.5227C42.5031 17.9015 42.0372 17.4129 41.4388 17.0568C40.8478 16.7008 40.1584 16.5227 39.3706 16.5227C38.5297 16.5227 37.791 16.7273 37.1547 17.1364C36.5183 17.5379 36.0221 18.0682 35.666 18.7273C35.3175 19.3788 35.1395 20.0947 35.1319 20.875V23.2955C35.1319 24.3106 35.3175 25.1818 35.6888 25.9091C36.06 26.6288 36.5789 27.1818 37.2456 27.5682C37.9122 27.947 38.6925 28.1364 39.5865 28.1364C40.185 28.1364 40.7266 28.053 41.2115 27.8864C41.6963 27.7121 42.1168 27.4583 42.4728 27.125C42.8289 26.7917 43.0978 26.3788 43.2797 25.8864L47.1206 26.3182C46.8781 27.3333 46.416 28.2197 45.7342 28.9773C45.06 29.7273 44.1963 30.3106 43.1433 30.7273C42.0903 31.1364 40.8857 31.3409 39.5297 31.3409ZM64.582 13.5455L58.3661 31H53.8207L47.6048 13.5455H51.9911L56.0025 26.5114H56.1843L60.207 13.5455H64.582ZM73.2822 31.3409C71.5322 31.3409 70.0208 30.9773 68.7481 30.25C67.4829 29.5152 66.5094 28.4773 65.8276 27.1364C65.1458 25.7879 64.8049 24.2008 64.8049 22.375C64.8049 20.5795 65.1458 19.0038 65.8276 17.6477C66.517 16.2841 67.4791 15.2235 68.714 14.4659C69.9488 13.7008 71.3996 13.3182 73.0662 13.3182C74.142 13.3182 75.1572 13.4924 76.1117 13.8409C77.0738 14.1818 77.9223 14.7121 78.6572 15.4318C79.3996 16.1515 79.9829 17.0682 80.4072 18.1818C80.8314 19.2879 81.0435 20.6061 81.0435 22.1364V23.3977H66.7367V20.625H77.1003C77.0928 19.8371 76.9223 19.1364 76.589 18.5227C76.2556 17.9015 75.7897 17.4129 75.1912 17.0568C74.6003 16.7008 73.9109 16.5227 73.1231 16.5227C72.2822 16.5227 71.5435 16.7273 70.9072 17.1364C70.2708 17.5379 69.7746 18.0682 69.4185 18.7273C69.07 19.3788 68.892 20.0947 68.8844 20.875V23.2955C68.8844 24.3106 69.07 25.1818 69.4412 25.9091C69.8125 26.6288 70.3314 27.1818 70.9981 27.5682C71.6647 27.947 72.445 28.1364 73.339 28.1364C73.9375 28.1364 74.4791 28.053 74.964 27.8864C75.4488 27.7121 75.8693 27.4583 76.2253 27.125C76.5814 26.7917 76.8503 26.3788 77.0322 25.8864L80.8731 26.3182C80.6306 27.3333 80.1685 28.2197 79.4867 28.9773C78.8125 29.7273 77.9488 30.3106 76.8958 30.7273C75.8428 31.1364 74.6382 31.3409 73.2822 31.3409ZM91.9595 13.5455V16.7273H81.9255V13.5455H91.9595ZM84.4027 9.36364H88.5164V25.75C88.5164 26.303 88.5997 26.7273 88.7664 27.0227C88.9406 27.3106 89.1679 27.5076 89.4482 27.6136C89.7285 27.7197 90.0391 27.7727 90.38 27.7727C90.6376 27.7727 90.8724 27.7538 91.0845 27.7159C91.3042 27.678 91.4709 27.6439 91.5845 27.6136L92.2777 30.8295C92.058 30.9053 91.7436 30.9886 91.3345 31.0795C90.933 31.1705 90.4406 31.2235 89.8573 31.2386C88.827 31.2689 87.8989 31.1136 87.0732 30.7727C86.2474 30.4242 85.5921 29.8864 85.1073 29.1591C84.63 28.4318 84.3952 27.5227 84.4027 26.4318V9.36364ZM94.1199 31V13.5455H98.2335V31H94.1199ZM96.1881 11.0682C95.5366 11.0682 94.9759 10.8523 94.5062 10.4205C94.0366 9.98106 93.8017 9.45454 93.8017 8.84091C93.8017 8.2197 94.0366 7.69318 94.5062 7.26136C94.9759 6.82197 95.5366 6.60227 96.1881 6.60227C96.8472 6.60227 97.4078 6.82197 97.8699 7.26136C98.3396 7.69318 98.5744 8.2197 98.5744 8.84091C98.5744 9.45454 98.3396 9.98106 97.8699 10.4205C97.4078 10.8523 96.8472 11.0682 96.1881 11.0682ZM108.797 31.3409C107.093 31.3409 105.615 30.9659 104.365 30.2159C103.115 29.4659 102.146 28.4167 101.456 27.0682C100.775 25.7197 100.434 24.1439 100.434 22.3409C100.434 20.5379 100.775 18.9583 101.456 17.6023C102.146 16.2462 103.115 15.1932 104.365 14.4432C105.615 13.6932 107.093 13.3182 108.797 13.3182C110.502 13.3182 111.979 13.6932 113.229 14.4432C114.479 15.1932 115.445 16.2462 116.127 17.6023C116.816 18.9583 117.161 20.5379 117.161 22.3409C117.161 24.1439 116.816 25.7197 116.127 27.0682C115.445 28.4167 114.479 29.4659 113.229 30.2159C111.979 30.9659 110.502 31.3409 108.797 31.3409ZM108.82 28.0455C109.744 28.0455 110.517 27.7917 111.138 27.2841C111.759 26.7689 112.222 26.0795 112.525 25.2159C112.835 24.3523 112.99 23.3902 112.99 22.3295C112.99 21.2614 112.835 20.2955 112.525 19.4318C112.222 18.5606 111.759 17.8674 111.138 17.3523C110.517 16.8371 109.744 16.5795 108.82 16.5795C107.873 16.5795 107.085 16.8371 106.456 17.3523C105.835 17.8674 105.369 18.5606 105.059 19.4318C104.756 20.2955 104.604 21.2614 104.604 22.3295C104.604 23.3902 104.756 24.3523 105.059 25.2159C105.369 26.0795 105.835 26.7689 106.456 27.2841C107.085 27.7917 107.873 28.0455 108.82 28.0455Z" fill="black"/>
</svg>
