<svg width="17" height="19" viewBox="0 0 17 19" fill="none" xmlns="http://www.w3.org/2000/svg">
<path d="M7.27637 0.510742C9.11806 0.486384 10.9769 0.498529 12.4258 0.588867C13.1519 0.634151 13.7605 0.698249 14.207 0.783203C14.4307 0.825774 14.5983 0.871102 14.7139 0.915039C14.7749 0.938279 14.808 0.956397 14.8223 0.964844C14.8454 1.00521 14.8809 1.09844 14.8857 1.28027C14.8912 1.48269 14.8583 1.74547 14.7812 2.05664C14.6274 2.6778 14.3133 3.42615 13.8857 4.14941C13.458 4.87292 12.9308 5.5468 12.3672 6.0332C11.7975 6.52485 11.2394 6.78402 10.7373 6.78418C10.4794 6.78418 10.207 6.85656 10.0029 7.07031C9.80591 7.2767 9.7441 7.54022 9.73535 7.76855C9.71861 8.20707 9.88863 8.75283 10.1221 9.30859C10.6019 10.451 11.4901 11.9471 12.4424 13.4141C13.3995 14.8885 14.4398 16.3609 15.2393 17.4629C15.5298 17.8633 15.7907 18.214 16.0029 18.5H6.85645L0.69043 0.720703C1.07963 0.70194 1.62284 0.677635 2.27148 0.651367C3.62488 0.596562 5.43727 0.535066 7.27637 0.510742Z" fill="black" stroke="black"/>
</svg>
