<svg width="143" height="157" viewBox="0 0 143 157" fill="none" xmlns="http://www.w3.org/2000/svg">
<path d="M61.1963 3.58984C76.694 3.38898 92.3504 3.49083 104.567 4.2373C110.688 4.61132 115.844 5.14142 119.647 5.85059C121.556 6.20634 123.016 6.58819 124.047 6.97266C124.863 7.27712 125.17 7.4977 125.228 7.5332C125.514 7.94059 125.873 8.83836 125.919 10.541C125.966 12.275 125.681 14.4919 125.024 17.0889C123.714 22.2734 121.046 28.4934 117.424 34.4971C113.802 40.5002 109.33 46.1121 104.52 50.1807C99.6675 54.284 94.8019 56.5459 90.3154 56.5459C88.2924 56.546 86.2279 57.0992 84.6797 58.6885C83.1698 60.2384 82.6703 62.246 82.5996 64.0596C82.4639 67.5441 83.8462 71.9432 85.8057 76.5146C89.8201 85.8803 97.264 98.1763 105.272 110.266C113.316 122.408 122.058 134.533 128.78 143.612C131.563 147.371 134.004 150.611 135.908 153.119H57.1504L4.86719 5.36426C5.0262 5.35665 5.18916 5.34872 5.35547 5.34082C8.6552 5.18401 13.3793 4.97006 19.0723 4.74414C30.4611 4.29218 45.7153 3.7905 61.1963 3.58984Z" fill="#EFEFEF" fill-opacity="0.933333" stroke="#EFEFEF" stroke-width="7" stroke-miterlimit="3.99393"/>
</svg>
